<?xml version="1.0" encoding="utf-8"?>
<!-- Generator: Adobe Illustrator 19.0.0, SVG Export Plug-In . SVG Version: 6.00 Build 0)  -->
<svg version="1.1" id="Camada_1" xmlns="http://www.w3.org/2000/svg" xmlns:xlink="http://www.w3.org/1999/xlink" x="0px" y="0px"
	 viewBox="0 0 1280 720" style="enable-background:new 0 0 1280 720;" xml:space="preserve">
<style type="text/css">
	.st0{fill:url(#XMLID_5_);}
	.st1{fill:url(#XMLID_6_);}
	.st2{fill:url(#XMLID_7_);}
	.st3{fill:url(#XMLID_8_);}
	.st4{opacity:0.25;fill:url(#XMLID_9_);}
	.st5{fill:#6F4D93;}
	.st6{font-family:'Pasajero';}
	.st7{font-size:130.5819px;}
	.st8{fill:#449487;}
	.st9{font-size:42.6984px;}
</style>
<radialGradient id="XMLID_5_" cx="142.6666" cy="119.3334" r="264.3393" gradientTransform="matrix(4.4444 8.483020e-003 -1.252008e-002 2.0755 1.4977 49.4504)" gradientUnits="userSpaceOnUse">
	<stop  offset="0.5561" style="stop-color:#FFFFFF"/>
	<stop  offset="1" style="stop-color:#F3F3F3"/>
</radialGradient>
<rect id="XMLID_5224_" x="0" y="0" class="st0" width="1280" height="720"/>
<linearGradient id="XMLID_6_" gradientUnits="userSpaceOnUse" x1="33.893" y1="493.1189" x2="684.4429" y2="-4.4368">
	<stop  offset="0" style="stop-color:#BF2A59"/>
	<stop  offset="0.246" style="stop-color:#8E5C84"/>
	<stop  offset="0.4505" style="stop-color:#5D67A1"/>
	<stop  offset="0.543" style="stop-color:#3D67AA"/>
	<stop  offset="1" style="stop-color:#E1A832"/>
</linearGradient>
<polygon id="XMLID_581_" class="st1" points="275.1,166.2 146,278.9 146,358.6 275.1,245.9 400.3,355.3 400.3,275.6 "/>
<linearGradient id="XMLID_7_" gradientUnits="userSpaceOnUse" x1="-116.064" y1="802.9664" x2="534.4861" y2="305.4105">
	<stop  offset="0" style="stop-color:#BF2F86"/>
	<stop  offset="0.2183" style="stop-color:#A47DAC"/>
	<stop  offset="0.4411" style="stop-color:#7697C2"/>
	<stop  offset="0.543" style="stop-color:#5D9DC9"/>
	<stop  offset="1" style="stop-color:#E9CB3A"/>
</linearGradient>
<polygon id="XMLID_3544_" class="st2" points="275.1,361.4 146,474.1 146,553.8 275.1,441.1 400.3,550.4 400.3,470.7 "/>
<linearGradient id="XMLID_8_" gradientUnits="userSpaceOnUse" x1="86.1391" y1="561.4299" x2="736.6884" y2="63.8747">
	<stop  offset="0" style="stop-color:#BF2F86"/>
	<stop  offset="0.2183" style="stop-color:#A47DAC"/>
	<stop  offset="0.4411" style="stop-color:#7697C2"/>
	<stop  offset="0.543" style="stop-color:#5D9DC9"/>
	<stop  offset="1" style="stop-color:#E9CB3A"/>
</linearGradient>
<polygon id="XMLID_582_" class="st3" points="362.9,316.8 362.9,275.1 338.2,275.1 338.2,295.2 275.6,240.5 116,379.8 116,478.4 
	275.6,339 430.4,474.2 430.4,375.7 "/>
<radialGradient id="XMLID_9_" cx="304.7176" cy="4946.2119" r="90.5833" gradientTransform="matrix(1.4609 0 0 0.1 -171.9829 59.1713)" gradientUnits="userSpaceOnUse">
	<stop  offset="0" style="stop-color:#787878"/>
	<stop  offset="6.724280e-002" style="stop-color:#8F8F8F"/>
	<stop  offset="0.1841" style="stop-color:#B2B2B2"/>
	<stop  offset="0.309" style="stop-color:#CECECE"/>
	<stop  offset="0.4425" style="stop-color:#E4E4E4"/>
	<stop  offset="0.5889" style="stop-color:#F3F3F3"/>
	<stop  offset="0.7575" style="stop-color:#FCFCFC"/>
	<stop  offset="1" style="stop-color:#FFFFFF"/>
</radialGradient>
<path id="XMLID_3547_" class="st4" d="M405.5,553.8c0,5-59.2,9.1-132.3,9.1c-73.1,0-132.3-4.1-132.3-9.1c0-5,59.2-9.1,132.3-9.1
	C346.3,544.7,405.5,548.8,405.5,553.8z"/>
<text id="XMLID_1_" transform="matrix(1 0 0 1 445.3631 388.8689)" class="st5 st6 st7">housotron </text>
<text id="XMLID_2_" transform="matrix(1 0 0 1 605.5005 458.042)" class="st8 st6 st9">upgrade your house</text>
</svg>
